<svg width="64" height="64" viewBox="0 0 64 64" fill="none" xmlns="http://www.w3.org/2000/svg">
<rect width="64" height="64" rx="8" fill="#B70002"/>
<path d="M20.8506 44.2L15.6943 27.3983H15.5625C15.582 27.7986 15.6113 28.4041 15.6504 29.2147C15.6992 30.0154 15.7432 30.8699 15.7822 31.7781C15.8213 32.6863 15.8408 33.5067 15.8408 34.2391V44.2H11.7832V22.784H17.9648L23.0332 39.1609H23.1211L28.4971 22.784H34.6787V44.2H30.4453V34.0633C30.4453 33.3895 30.4551 32.6131 30.4746 31.7342C30.5039 30.8553 30.5381 30.0203 30.5771 29.2293C30.6162 28.4285 30.6455 27.8279 30.665 27.4276H30.5332L25.0107 44.2H20.8506ZM52.7256 38.2527C52.7256 39.5223 52.418 40.6258 51.8027 41.5633C51.1875 42.5008 50.2891 43.2234 49.1074 43.7313C47.9355 44.2391 46.5098 44.493 44.8301 44.493C44.0879 44.493 43.3604 44.4442 42.6475 44.3465C41.9443 44.2488 41.2656 44.1072 40.6113 43.9217C39.9668 43.7264 39.3516 43.4871 38.7656 43.2039V38.9852C39.7812 39.4344 40.8359 39.8397 41.9297 40.201C43.0234 40.5623 44.1074 40.743 45.1816 40.743C45.9238 40.743 46.5195 40.6453 46.9688 40.45C47.4277 40.2547 47.7598 39.9861 47.9648 39.6443C48.1699 39.3026 48.2725 38.9119 48.2725 38.4725C48.2725 37.9354 48.0918 37.4764 47.7305 37.0955C47.3691 36.7147 46.8711 36.3582 46.2363 36.0262C45.6113 35.6942 44.9033 35.3377 44.1123 34.9568C43.6143 34.7225 43.0723 34.4393 42.4863 34.1072C41.9004 33.7654 41.3438 33.3504 40.8164 32.8621C40.2891 32.3738 39.8545 31.783 39.5127 31.0897C39.1807 30.3865 39.0146 29.5467 39.0146 28.5701C39.0146 27.2908 39.3076 26.1971 39.8936 25.2889C40.4795 24.3807 41.3145 23.6873 42.3984 23.2088C43.4922 22.7205 44.7812 22.4764 46.2656 22.4764C47.3789 22.4764 48.4385 22.6082 49.4443 22.8719C50.46 23.1258 51.5195 23.4969 52.623 23.9852L51.1582 27.5154C50.1719 27.1151 49.2881 26.8074 48.5068 26.5926C47.7256 26.368 46.9297 26.2557 46.1191 26.2557C45.5527 26.2557 45.0693 26.3484 44.6689 26.534C44.2686 26.7098 43.9658 26.9637 43.7607 27.2957C43.5557 27.618 43.4531 27.994 43.4531 28.4236C43.4531 28.9315 43.5996 29.3611 43.8926 29.7127C44.1953 30.0545 44.6445 30.3865 45.2402 30.7088C45.8457 31.0311 46.5977 31.407 47.4961 31.8367C48.5898 32.3543 49.5225 32.8963 50.2939 33.4627C51.0752 34.0193 51.6758 34.6785 52.0957 35.4402C52.5156 36.1922 52.7256 37.1297 52.7256 38.2527Z" fill="white"/>
</svg>
